<?xml version="1.0" encoding="UTF-8"?>
<svg version="1.1" xmlns="http://www.w3.org/2000/svg" width="577" height="433">
<path d="M0 0 C12.62216092 -0.04641448 25.24430142 -0.08191551 37.86653042 -0.10362434 C43.72802694 -0.11404538 49.58946491 -0.12817393 55.45092773 -0.15087891 C61.11138036 -0.17266713 66.7717768 -0.18458126 72.43226814 -0.18975449 C74.58793077 -0.19343951 76.74359045 -0.20063537 78.89922905 -0.21146011 C81.92694534 -0.22605443 84.95443172 -0.22797462 87.98217773 -0.22705078 C88.86619263 -0.23424133 89.75020752 -0.24143188 90.66101074 -0.24884033 C103.00009297 -0.20830766 113.00479783 3.31713124 122 12 C124.6002755 15.52613117 126.81845221 19.20495287 129 23 C129.99 24.485 129.99 24.485 131 26 C131.47580388 27.3201495 131.90972498 28.65576925 132.3125 30 C135.50068999 39.78336731 140.38724783 48.74610861 145.19873047 57.8046875 C147.76165841 62.63126507 150.26325779 67.47726461 152.6875 72.375 C155.64929085 78.3467969 158.7832409 84.21042329 161.95654297 90.07177734 C162.30088379 90.70809082 162.64522461 91.3444043 163 92 C163.41781738 92.77166504 163.83563477 93.54333008 164.26611328 94.33837891 C165.64259167 96.88863678 167.00947313 99.44386409 168.375 102 C168.81626221 102.81364014 169.25752441 103.62728027 169.7121582 104.46557617 C171.74141273 108.27930516 173.52474225 111.63466958 174 116 C174.66 116 175.32 116 176 116 C176.268125 116.680625 176.53625 117.36125 176.8125 118.0625 C180.99743807 128.41471523 185.92805415 138.37090876 191.2578125 148.1796875 C191.80538208 149.18938599 191.80538208 149.18938599 192.36401367 150.21948242 C193.06069642 151.49670771 193.76363499 152.77054793 194.47387695 154.0402832 C196.28278184 157.34380092 197.49947056 160.25660376 198 164 C198.66 164 199.32 164 200 164 C200.474375 165.155 200.94875 166.31 201.4375 167.5 C203.48469568 172.11893973 205.88489346 176.48555463 208.375 180.875 C208.76606934 181.5649707 209.15713867 182.25494141 209.56005859 182.96582031 C211.33779435 186.09398692 213.12459201 189.21670383 214.91796875 192.3359375 C215.46066406 193.29757813 216.00335938 194.25921875 216.5625 195.25 C217.03816406 196.08015625 217.51382813 196.9103125 218.00390625 197.765625 C219 200 219 200 219 204 C219.66 204 220.32 204 221 204 C222.46610118 206.92357824 223.92643511 209.84906513 225.359375 212.7890625 C228.47089551 219.13446669 231.85639868 225.22981074 235.46484375 231.3046875 C237.26509711 234.46543768 238.62712846 237.63646472 240 241 C240.99414593 242.67016516 241.9935725 244.33720673 243 246 C243.309375 246.804375 243.61875 247.60875 243.9375 248.4375 C244.96293316 251.1503532 244.96293316 251.1503532 246.9375 253.875 C249.09395236 257.14235207 250.49251659 260.39514836 252 264 C252.99414593 265.67016516 253.9935725 267.33720673 255 269 C255.26683594 269.69609375 255.53367187 270.3921875 255.80859375 271.109375 C257.44883408 275.08897449 259.4766756 278.82879905 261.5 282.625 C262.39977184 284.32420167 263.29951044 286.02342094 264.19921875 287.72265625 C264.66118652 288.59293457 265.1231543 289.46321289 265.59912109 290.35986328 C267.84388152 294.59040341 270.07963416 298.82567192 272.3125 303.0625 C272.736521 303.866875 273.16054199 304.67125 273.59741211 305.5 C276.01533184 310.09697336 278.37487456 314.71629489 280.671875 319.375 C282.49920732 322.98666859 284.40898911 326.55303357 286.3125 330.125 C290.68986201 338.34471311 294.87118478 346.65325845 299 355 C299.39574219 355.74507813 299.79148437 356.49015625 300.19921875 357.2578125 C301.44547151 359.96917216 301.37396795 362.0705844 301 365 C299.23536553 367.03532007 297.74773307 367.88921183 295.07487869 368.28523636 C292.57522602 368.42098694 290.09176402 368.45107105 287.58837891 368.45166016 C286.63492584 368.46334229 285.68147278 368.47502441 284.6991272 368.48706055 C281.54150358 368.52069478 278.38434962 368.53139245 275.2265625 368.5390625 C273.02379188 368.55124737 270.8210229 368.56373352 268.61825562 368.57650757 C263.99302459 368.59900347 259.36795845 368.608539 254.74267578 368.61083984 C248.84710531 368.61609959 242.95293009 368.66727796 237.05773354 368.73035622 C232.50201173 368.77146416 227.94661852 368.78048391 223.390728 368.78095627 C221.21960977 368.78630704 219.04848607 368.80302411 216.87755203 368.83180618 C204.34766417 368.98395798 193.35404185 368.92200811 183 361 C182.67 360.01 182.34 359.02 182 358 C181.38640625 357.69320313 180.7728125 357.38640625 180.140625 357.0703125 C172.57918759 353.2895938 168.84869684 341.97596387 165.296875 334.671875 C162.65376886 329.24903155 159.85984302 323.90699927 157.0625 318.5625 C156.55122559 317.58385986 156.03995117 316.60521973 155.51318359 315.59692383 C153.13658206 311.05479801 150.74879731 306.51906948 148.3359375 301.99609375 C147.92851318 301.23159912 147.52108887 300.46710449 147.10131836 299.67944336 C146.35489556 298.28164258 145.60593311 296.88519328 144.85375977 295.49047852 C143.24336455 292.47791882 141.79173075 289.50983096 140.453125 286.359375 C138.72930487 282.37419943 136.53681076 278.88492975 134.20703125 275.234375 C133 273 133 273 133 270 C132.34 270 131.68 270 131 270 C130.79955078 269.47269287 130.59910156 268.94538574 130.39257812 268.40209961 C126.66147731 258.6566081 122.80556645 249.18363181 117.73828125 240.05175781 C111 227.86737575 111 227.86737575 111 223 C110.34 223 109.68 223 109 223 C107.72660518 220.48043257 106.45623358 217.95941351 105.1875 215.4375 C104.83107422 214.73302734 104.47464844 214.02855469 104.10742188 213.30273438 C102.42749309 209.958289 100.80945206 206.61849308 99.3671875 203.1640625 C98.07680683 199.91158809 98.07680683 199.91158809 95.9375 196.9375 C93.97943599 193.9688223 93.11729788 191.35189365 92 188 C91.34 187.01 90.68 186.02 90 185 C87.99818121 181.99727182 87.13273008 179.39819024 86 176 C84.948125 174.4840625 84.948125 174.4840625 83.875 172.9375 C81.91766794 169.87101311 81.58342219 168.54091139 82 165 C81.34 165 80.68 165 80 165 C79 163 78 161 77 159 C76.53464844 158.07574219 76.06929688 157.15148437 75.58984375 156.19921875 C73.98089336 152.961552 72.41257148 149.70966845 70.875 146.4375 C70.35679687 145.34308594 69.83859375 144.24867188 69.3046875 143.12109375 C68.15264005 140.3651479 67.44891846 137.93986848 67 135 C66.34 135 65.68 135 65 135 C64.67 133.02 64.34 131.04 64 129 C63.34 129 62.68 129 62 129 C61.32332002 127.75539217 60.65905281 126.50403104 60 125.25 C59.62875 124.55390625 59.2575 123.8578125 58.875 123.140625 C58 121 58 121 58 117 C57.34 117 56.68 117 56 117 C48.95833333 102.91666667 41.91666667 88.83333333 34.875 74.75 C34.39546875 73.79222656 33.9159375 72.83445312 33.421875 71.84765625 C32.46979283 69.9408763 31.52190801 68.03199507 30.578125 66.12109375 C27.5306717 59.9688426 24.35721576 53.89478249 21.10205078 47.85058594 C18.63998399 43.25736904 16.30151538 38.61287702 14 33.9375 C10.79511352 27.4388787 7.31645781 21.14771657 3.6640625 14.890625 C3.11492187 13.93671875 2.56578125 12.9828125 2 12 C1.59523437 11.37609375 1.19046875 10.7521875 0.7734375 10.109375 C-0.44530647 6.7855278 -0.04407127 3.52659218 0 0 Z " fill="#030303" transform="translate(232,32)"/>
<path d="M0 0 C1.84706543 -0.04074142 1.84706543 -0.04074142 3.73144531 -0.08230591 C4.79089355 -0.11545395 5.8503418 -0.14860199 6.94189453 -0.18275452 C10.47363734 0.17152831 12.86305749 1.37238562 15.92675781 3.1166687 C16.56356789 8.21114933 15.23142371 10.6047598 12.48925781 14.6401062 C9.85370631 18.81745533 7.81558798 23.30565372 5.67285156 27.7494812 C3.96122885 31.05019435 2.01349712 34.04403349 -0.07324219 37.1166687 C-0.7476535 38.7802166 -1.41327428 40.44733812 -2.07324219 42.1166687 C-4.7368687 47.24661606 -7.67161538 52.1813262 -10.86230469 56.9994812 C-12.20351185 59.34443049 -13.21950373 61.77564776 -14.26074219 64.2651062 C-15.58627728 67.28579676 -17.17879423 70.16273895 -18.76074219 73.0541687 C-21.60784862 78.32141443 -24.35645658 83.62474697 -27.01074219 88.9916687 C-30.85642916 96.75125883 -34.88563987 104.40574 -38.96630859 112.04391479 C-40.05009314 114.07332168 -41.13052918 116.10447505 -42.20996094 118.13619995 C-45.70233119 124.70392875 -49.22372623 131.25245292 -52.84667969 137.7494812 C-54.10587401 140.08120195 -54.10587401 140.08120195 -55.01074219 142.4916687 C-56.34433689 145.78643207 -58.00626775 148.87188668 -59.69824219 151.9916687 C-60.05015625 152.64659302 -60.40207031 153.30151733 -60.76464844 153.97628784 C-61.86517334 156.02435098 -62.96886953 158.07067822 -64.07324219 160.1166687 C-68.58959911 168.48976238 -72.99187809 176.90021971 -77.21826172 185.42379761 C-79.50043885 190.01165638 -81.88972599 194.52326111 -84.37792969 199.00338745 C-85.76752759 201.55525273 -87.11987337 204.11879395 -88.45605469 206.69869995 C-98.52254856 226.12213837 -98.52254856 226.12213837 -102.07324219 230.1166687 C-102.73324219 230.1166687 -103.39324219 230.1166687 -104.07324219 230.1166687 C-104.07324219 230.7766687 -104.07324219 231.4366687 -104.07324219 232.1166687 C-112.9406592 239.97066663 -122.43603751 242.596694 -134.09692383 242.47311401 C-135.5158493 242.47618057 -135.5158493 242.47618057 -136.96343994 242.47930908 C-140.05363032 242.48228915 -143.14327257 242.46393303 -146.23339844 242.4447937 C-148.39147306 242.44173283 -150.54954967 242.4398592 -152.70762634 242.43911743 C-157.21035424 242.43453285 -161.71290144 242.42017042 -166.21557617 242.3979187 C-171.99959136 242.36948446 -177.78346552 242.3586899 -183.56754398 242.3542366 C-188.01374226 242.35009246 -192.45991183 242.34028592 -196.9060955 242.32836151 C-199.04044807 242.32265102 -201.17480341 242.3178949 -203.30916023 242.31409454 C-206.27752745 242.30726004 -209.24578028 242.29364521 -212.21411133 242.27780151 C-213.10182724 242.27668365 -213.98954315 242.2755658 -214.90415955 242.27441406 C-220.95854449 242.23136639 -220.95854449 242.23136639 -222.07324219 241.1166687 C-222.65676704 234.46448535 -221.27934083 230.82935356 -218.07324219 225.1166687 C-216.9813955 222.95427966 -215.89841488 220.78739651 -214.82324219 218.6166687 C-213.90657552 216.78333537 -212.98990885 214.95000203 -212.07324219 213.1166687 C-211.41324219 213.1166687 -210.75324219 213.1166687 -210.07324219 213.1166687 C-209.97011719 212.2297937 -209.86699219 211.3429187 -209.76074219 210.4291687 C-209.05608312 207.03399321 -208.11778559 204.89724772 -206.07324219 202.1166687 C-205.41324219 202.1166687 -204.75324219 202.1166687 -204.07324219 202.1166687 C-203.57824219 199.1466687 -203.57824219 199.1466687 -203.07324219 196.1166687 C-202.41324219 196.1166687 -201.75324219 196.1166687 -201.07324219 196.1166687 C-200.97914063 195.4257312 -200.88503906 194.7347937 -200.78808594 194.0229187 C-199.91807686 190.4858326 -198.41584776 187.7972195 -196.63574219 184.6166687 C-191.73864715 175.71110561 -187.45355052 166.53205511 -183.12939453 157.33883667 C-181.81679786 154.57710414 -180.45678335 151.84345372 -179.07324219 149.1166687 C-178.41324219 149.1166687 -177.75324219 149.1166687 -177.07324219 149.1166687 C-176.96238281 148.5494812 -176.85152344 147.9822937 -176.73730469 147.3979187 C-175.98333421 144.80780836 -174.87488701 142.90540372 -173.44824219 140.6166687 C-172.90941406 139.73752808 -172.37058594 138.85838745 -171.81542969 137.9526062 C-171.24050781 137.01674683 -170.66558594 136.08088745 -170.07324219 135.1166687 C-164.74117602 126.24583216 -159.68849887 117.27104992 -155.63574219 107.7338562 C-153.993219 103.93141501 -152.19357318 100.24771793 -150.32324219 96.5541687 C-149.97253662 95.85654419 -149.62183105 95.15891968 -149.26049805 94.44015503 C-147.61556269 91.16847475 -145.96382477 87.90025996 -144.31152344 84.6322937 C-141.42482568 78.89927158 -138.60674835 73.14823668 -135.88671875 67.33468628 C-131.259587 57.44935906 -126.32642191 47.76357388 -121.16308594 38.1479187 C-120.22041101 36.39096185 -119.28662256 34.62924249 -118.35449219 32.8666687 C-116.96290858 30.26115046 -115.53479853 27.68350173 -114.07324219 25.1166687 C-113.55632812 24.19627808 -113.03941406 23.27588745 -112.50683594 22.3276062 C-107.2774005 13.5188588 -100.63118254 6.20771068 -91.07324219 2.1166687 C-86.44094381 1.13947777 -81.89530163 0.9493746 -77.17871094 0.91134644 C-76.41028366 0.90144684 -75.64185638 0.89154724 -74.85014343 0.88134766 C-72.32037369 0.8498807 -69.79058589 0.82500604 -67.26074219 0.80026245 C-65.48681194 0.77965262 -63.71288615 0.75865521 -61.93896484 0.73728943 C-57.26894002 0.68218579 -52.59887101 0.63278209 -47.92877197 0.58444214 C-44.1509727 0.54439109 -40.37322559 0.50031973 -36.59547424 0.45600796 C-32.04641221 0.4027269 -27.49733067 0.35122966 -22.94824219 0.30026245 C-22.09773285 0.29070463 -21.24722351 0.28114681 -20.37094116 0.27129936 C-16.38206891 0.22719664 -12.39331863 0.18792864 -8.40429688 0.16033936 C-5.6010843 0.13922362 -2.80196656 0.08514479 0 0 Z " fill="#040404" transform="translate(264.0732421875,157.88333129882813)"/>
<path d="M0 0 C0.79039169 0.00414917 1.58078339 0.00829834 2.39512634 0.01257324 C3.25335495 0.02237717 4.11158356 0.03218109 4.99581909 0.0422821 C5.90692947 0.04867706 6.81803986 0.05507202 7.75675964 0.06166077 C10.77125324 0.08445452 13.78560344 0.11507572 16.80001831 0.14653015 C18.9002669 0.16576992 21.00051718 0.18482548 23.10076904 0.20370483 C27.50739952 0.24470304 31.91396414 0.2899177 36.32052612 0.33769226 C41.94904399 0.3981017 47.57758367 0.44511727 53.20625496 0.48852253 C57.54737789 0.5240172 61.88838057 0.56823942 66.22939682 0.61487389 C68.30325368 0.63582761 70.37714351 0.65375661 72.45105362 0.6685276 C75.3632874 0.69027967 78.27514806 0.72421528 81.18722534 0.7610321 C82.03330856 0.76476334 82.87939178 0.76849457 83.75111389 0.77233887 C94.56787209 0.94127587 102.72993093 2.8342283 110.97970581 10.0957489 C113.29703677 12.59412135 115.15953746 15.21988292 116.97970581 18.0957489 C117.49275269 18.88078796 118.00579956 19.66582703 118.53439331 20.47465515 C121.55478543 25.27572621 123.85261432 30.03628754 125.85861206 35.3301239 C129.29295625 43.802304 133.65742766 51.95177984 138.62033081 59.6191864 C139.77749364 61.72735086 140.57633694 63.64066055 141.37814331 65.8926239 C142.93754457 70.20006797 145.0458708 74.02560207 147.35470581 77.9707489 C150.34158446 83.17552335 153.23519305 88.38278351 155.85079956 93.78715515 C156.66684977 95.4559637 157.51780649 97.10785517 158.38986206 98.74809265 C158.8526355 99.62594421 159.31540894 100.50379578 159.79220581 101.4082489 C160.21115112 102.18813171 160.63009644 102.96801453 161.06173706 103.77153015 C162.10542958 106.41407079 162.27898037 108.27876772 161.97970581 111.0957489 C159.05547297 114.01998175 156.07780946 114.97252688 152.0078001 115.2115593 C151.31264199 115.20715961 150.61748388 115.20275993 149.90126038 115.19822693 C149.09811905 115.19552292 148.29497772 115.19281891 147.46749878 115.19003296 C146.5952063 115.18180008 145.72291382 115.1735672 144.82418823 115.16508484 C143.43566399 115.15790184 143.43566399 115.15790184 142.01908875 115.15057373 C138.95771414 115.13288461 135.8964803 115.10713655 132.83517456 115.0801239 C130.70531744 115.06342807 128.57546005 115.04676595 126.44560242 115.03013611 C121.97930493 114.99366045 117.51307675 114.95243652 113.04684448 114.90873718 C107.33057652 114.85379943 101.61434927 114.81722955 95.89791393 114.78510666 C91.49768639 114.75720612 87.09765163 114.71614827 82.69756508 114.67150116 C80.59053682 114.65233666 78.48345853 114.63802497 76.37636375 114.62870026 C73.42505741 114.61432961 70.47449928 114.58139074 67.52340698 114.54399109 C66.2240773 114.54378716 66.2240773 114.54378716 64.89849854 114.5435791 C58.03053686 114.42524899 52.82277805 112.75060257 47.22970581 108.5957489 C46.67798706 108.1935614 46.12626831 107.7913739 45.55783081 107.3769989 C43.90088293 106.03175409 42.39337833 104.69677561 40.97970581 103.0957489 C40.97970581 102.4357489 40.97970581 101.7757489 40.97970581 101.0957489 C40.31970581 101.0957489 39.65970581 101.0957489 38.97970581 101.0957489 C35.77799081 95.4152868 32.69966254 89.68005284 29.66720581 83.9082489 C26.15671798 77.2332429 22.49991418 70.66441966 18.70626831 64.14653015 C17.54204317 62.0893812 16.4331823 60.00003591 15.37814331 57.8848114 C14.00688707 54.99612271 14.00688707 54.99612271 11.97970581 52.1582489 C10.23644888 49.48888673 9.03331139 46.93292574 7.80929565 44.00614929 C6.16427047 40.21794387 4.21794897 36.57326736 2.32150269 32.90629578 C-0.02029419 28.30758592 -0.02029419 28.30758592 -0.02029419 26.0957489 C-0.68029419 26.0957489 -1.34029419 26.0957489 -2.02029419 26.0957489 C-2.28584106 25.39707703 -2.55138794 24.69840515 -2.82498169 23.9785614 C-3.17818481 23.06848328 -3.53138794 22.15840515 -3.89529419 21.2207489 C-4.4173645 19.86336609 -4.4173645 19.86336609 -4.94998169 18.4785614 C-5.90560314 15.97357884 -5.90560314 15.97357884 -8.02029419 14.0957489 C-9.52009646 10.34624324 -10.47000832 7.14317607 -10.02029419 3.0957489 C-7.02241129 0.097866 -4.11322335 -0.03427349 0 0 Z " fill="#040404" transform="translate(240.02029418945313,286.9042510986328)"/>
<path d="M0 0 C1.19882813 0.00483398 1.19882813 0.00483398 2.421875 0.00976562 C3.246875 0.01814453 4.071875 0.02652344 4.921875 0.03515625 C5.76234375 0.03966797 6.6028125 0.04417969 7.46875 0.04882812 C9.53648901 0.06057664 11.60419124 0.07851103 13.671875 0.09765625 C13.671875 0.42765625 13.671875 0.75765625 13.671875 1.09765625 C3.276875 2.08765625 3.276875 2.08765625 -7.328125 3.09765625 C-7.328125 6.72765625 -7.328125 10.35765625 -7.328125 14.09765625 C-7.658125 14.09765625 -7.988125 14.09765625 -8.328125 14.09765625 C-9.73505458 10.31653301 -10.77843366 7.15043421 -10.328125 3.09765625 C-7.24632667 0.01585792 -4.22346867 -0.03016763 0 0 Z " fill="#A3A3A3" transform="translate(240.328125,286.90234375)"/>
<path d="M0 0 C0.33 1.32 0.66 2.64 1 4 C0.34 4 -0.32 4 -1 4 C-1 4.66 -1 5.32 -1 6 C-2.65 6.66 -4.3 7.32 -6 8 C-4.55746343 4.63408134 -2.66735273 2.48952921 0 0 Z " fill="#565656" transform="translate(162,167)"/>
</svg>
