<?xml version="1.0" encoding="UTF-8"?>
<svg version="1.1" xmlns="http://www.w3.org/2000/svg" width="204" height="192">
<path d="M0 0 C1.79244141 0.01740234 1.79244141 0.01740234 3.62109375 0.03515625 C5.41740234 0.04869141 5.41740234 0.04869141 7.25 0.0625 C8.17683594 0.07410156 9.10367188 0.08570313 10.05859375 0.09765625 C10.496875 0.99742188 10.93515625 1.8971875 11.38671875 2.82421875 C16.88982985 14.01989717 22.82512917 24.95946079 28.85693359 35.87792969 C29.96866247 37.93153369 31.02775965 40.00248445 32.05859375 42.09765625 C32.3510498 41.56285645 32.64350586 41.02805664 32.94482422 40.47705078 C34.27085639 38.05695002 35.60215486 35.63978635 36.93359375 33.22265625 C37.39378906 32.38089844 37.85398437 31.53914063 38.328125 30.671875 C38.77285156 29.86621094 39.21757813 29.06054688 39.67578125 28.23046875 C40.08425293 27.48684082 40.49272461 26.74321289 40.91357422 25.97705078 C42.05859375 24.09765625 42.05859375 24.09765625 44.05859375 22.09765625 C47.44238281 22.08105469 47.44238281 22.08105469 51.05859375 23.09765625 C53.18261719 25.79394531 53.18261719 25.79394531 54.91796875 29.36328125 C55.23388977 29.99369324 55.54981079 30.62410522 55.87530518 31.27362061 C56.87787183 33.28714854 57.84355369 35.31591689 58.80859375 37.34765625 C59.47152884 38.69911113 60.13687052 40.04938831 60.8046875 41.3984375 C62.03611575 43.88683212 63.2495499 46.38104713 64.45214844 48.88378906 C65.98201665 52.07061674 65.98201665 52.07061674 67.76660156 54.83496094 C69.05859375 57.09765625 69.05859375 57.09765625 69.05859375 60.09765625 C69.73921875 59.39640625 70.41984375 58.69515625 71.12109375 57.97265625 C73.1754622 55.90664832 75.31637066 54.01968043 77.55859375 52.16015625 C79.93435383 50.16741632 81.93769952 48.14652808 83.87109375 45.72265625 C84.59296875 44.85640625 85.31484375 43.99015625 86.05859375 43.09765625 C86.71859375 43.09765625 87.37859375 43.09765625 88.05859375 43.09765625 C88.05859375 42.43765625 88.05859375 41.77765625 88.05859375 41.09765625 C90.88632042 37.95211592 93.65630246 35.34695248 97.87109375 34.59765625 C100.05859375 35.09765625 100.05859375 35.09765625 102.05859375 37.09765625 C102.69360352 39.55712891 102.69360352 39.55712891 103.25 42.76171875 C103.57701904 44.62086914 103.57701904 44.62086914 103.91064453 46.51757812 C104.14786114 47.91920316 104.38466184 49.32089864 104.62109375 50.72265625 C104.87585004 52.19991971 105.13090561 53.67713158 105.38623047 55.15429688 C109.29845041 77.95376671 112.91196981 100.80709456 116.51428223 123.65722656 C117.07859684 127.22408977 117.65022181 130.78974373 118.22167969 134.35546875 C118.59213977 136.69656035 118.96226869 139.03770438 119.33203125 141.37890625 C119.50594391 142.45418579 119.67985657 143.52946533 119.85903931 144.6373291 C120.67633857 149.85865912 121.26467392 154.81230591 121.05859375 160.09765625 C120.24261719 160.52433594 119.42664063 160.95101562 118.5859375 161.390625 C111.59426417 165.07178191 104.66687297 168.85291102 97.79541016 172.75439453 C95.82346585 173.87091868 93.84642893 174.97848992 91.86474609 176.07763672 C87.19267782 178.68013719 82.65097459 181.32006297 78.26171875 184.37890625 C67.95563927 191.28798555 58.77511866 193.13268372 46.55859375 193.16015625 C45.53742966 193.17110825 45.53742966 193.17110825 44.49563599 193.18228149 C34.58199015 193.20428953 27.51351683 191.17976705 19.05859375 186.09765625 C17.7961023 185.40679879 16.53204526 184.7187851 15.265625 184.03515625 C14.14542969 183.39578125 13.02523437 182.75640625 11.87109375 182.09765625 C10.52634554 181.33279883 9.18126842 180.5685195 7.8359375 179.8046875 C6.72581299 179.17361084 6.72581299 179.17361084 5.59326172 178.52978516 C2.63153266 176.85635974 -0.33991685 175.20094185 -3.3125 173.546875 C-4.42665283 172.92619141 -5.54080566 172.30550781 -6.6887207 171.66601562 C-8.90377093 170.43256807 -11.11972387 169.20073994 -13.33666992 167.97070312 C-14.36381104 167.39771484 -15.39095215 166.82472656 -16.44921875 166.234375 C-17.3633252 165.72608154 -18.27743164 165.21778809 -19.21923828 164.6940918 C-22.20866924 162.94091789 -25.06481232 161.02925733 -27.94140625 159.09765625 C-23.99840592 130.86230455 -19.75031026 102.68577597 -15.27270508 74.53051758 C-14.05324936 66.85949517 -12.83855901 59.18771693 -11.62500763 51.51575851 C-11.3327827 49.66925423 -11.04024064 47.82280011 -10.74736786 45.97639847 C-8.77186969 33.51947608 -6.85366593 21.05714221 -5.10128784 8.56654358 C-4.88897018 7.08328835 -4.88897018 7.08328835 -4.67236328 5.57006836 C-4.5537796 4.72141708 -4.43519592 3.87276581 -4.3130188 2.99839783 C-3.70209892 -0.12636427 -3.30267226 0.10965047 0 0 Z " fill="#FAC93F" transform="translate(54.94140625,-0.09765625)"/>
<path d="M0 0 C1.79244141 0.01740234 1.79244141 0.01740234 3.62109375 0.03515625 C5.41740234 0.04869141 5.41740234 0.04869141 7.25 0.0625 C8.17683594 0.07410156 9.10367188 0.08570313 10.05859375 0.09765625 C10.496875 0.99742188 10.93515625 1.8971875 11.38671875 2.82421875 C16.88982985 14.01989717 22.82512917 24.95946079 28.85693359 35.87792969 C29.96866247 37.93153369 31.02775965 40.00248445 32.05859375 42.09765625 C32.3510498 41.56285645 32.64350586 41.02805664 32.94482422 40.47705078 C34.27085639 38.05695002 35.60215486 35.63978635 36.93359375 33.22265625 C37.39378906 32.38089844 37.85398438 31.53914063 38.328125 30.671875 C38.77285156 29.86621094 39.21757813 29.06054688 39.67578125 28.23046875 C40.08425293 27.48684082 40.49272461 26.74321289 40.91357422 25.97705078 C42.05859375 24.09765625 42.05859375 24.09765625 44.05859375 22.09765625 C47.3125 21.83984375 47.3125 21.83984375 51.05859375 23.09765625 C53.60134782 26.18866501 55.25690345 29.63362177 56.99609375 33.22265625 C57.48916016 34.16109375 57.98222656 35.09953125 58.49023438 36.06640625 C61.18467193 41.40296218 62.31838428 45.03587725 62.05859375 51.09765625 C63.05551698 52.10072358 64.05594235 53.1003147 65.05859375 54.09765625 C66.0078125 56.359375 66.0078125 56.359375 66.74609375 58.78515625 C66.99746094 59.59339844 67.24882813 60.40164062 67.5078125 61.234375 C67.68957031 61.84925781 67.87132813 62.46414062 68.05859375 63.09765625 C49.01829529 82.13795471 29.97799683 101.17825317 10.93769836 120.21855164 C10.45397577 120.70255621 9.97025318 121.18656078 9.47187233 121.68523216 C8.07745855 123.07880286 6.68006785 124.46939277 5.28263855 125.85993958 C3.41885071 127.73518468 1.68652937 129.63069176 -0.00390625 131.66015625 C-2.21297856 134.26106915 -4.39058313 136.8201356 -6.94140625 139.09765625 C-7.60140625 139.09765625 -8.26140625 139.09765625 -8.94140625 139.09765625 C-9.16828125 139.67515625 -9.39515625 140.25265625 -9.62890625 140.84765625 C-11.28902264 143.69357006 -13.33328582 145.09607546 -15.94140625 147.09765625 C-18.39665031 149.43598393 -20.62979468 151.67063298 -22.62890625 154.41015625 C-23.06203125 154.96703125 -23.49515625 155.52390625 -23.94140625 156.09765625 C-24.60140625 156.09765625 -25.26140625 156.09765625 -25.94140625 156.09765625 C-26.23739855 146.69585873 -25.39051594 137.85641617 -23.8515625 128.58984375 C-23.62844904 127.19949568 -23.40629793 125.80899289 -23.18502808 124.41835022 C-22.71348932 121.46617396 -22.23595524 118.51506008 -21.75338745 115.56466675 C-20.99351457 110.91784755 -20.24737085 106.26889295 -19.50415039 101.61938477 C-19.25109215 100.03687909 -18.9980251 98.45437482 -18.74494934 96.87187195 C-18.61908762 96.08470984 -18.4932259 95.29754772 -18.36355019 94.48653221 C-17.97929631 92.08642675 -17.59371919 89.68653712 -17.20780945 87.28669739 C-14.67919152 71.5491054 -12.26756437 55.79451237 -9.87890625 40.03515625 C-9.5060152 37.57990406 -9.13305187 35.12466284 -8.76000977 32.66943359 C-8.58471237 31.51487671 -8.40941498 30.36031982 -8.22880554 29.17077637 C-7.89637485 26.98200661 -7.56363646 24.79328356 -7.23054504 22.60461426 C-6.5738283 18.28611271 -5.91944939 13.96752209 -5.28955078 9.64501953 C-5.11407715 8.45505371 -4.93860352 7.26508789 -4.7578125 6.0390625 C-4.61931885 5.07814697 -4.4808252 4.11723145 -4.33813477 3.12719727 C-3.70879437 -0.09231457 -3.39974191 0.11287324 0 0 Z " fill="#F9A314" transform="translate(54.94140625,-0.09765625)"/>
<path d="M0 0 C4.31339625 1.35374282 4.69282986 1.9227872 6.8984375 5.640625 C7.87413864 7.52034312 8.8225348 9.41443428 9.74609375 11.3203125 C10.23916016 12.25875 10.73222656 13.1971875 11.24023438 14.1640625 C13.93467193 19.50061843 15.06838428 23.1335335 14.80859375 29.1953125 C15.80551698 30.19837983 16.80594235 31.19797095 17.80859375 32.1953125 C18.7578125 34.45703125 18.7578125 34.45703125 19.49609375 36.8828125 C19.74746094 37.69105469 19.99882813 38.49929687 20.2578125 39.33203125 C20.43957031 39.94691406 20.62132813 40.56179687 20.80859375 41.1953125 C1.76829529 60.23561096 -17.27200317 79.27590942 -36.31230164 98.31620789 C-36.79602423 98.80021246 -37.27974682 99.28421703 -37.77812767 99.78288841 C-39.17254145 101.17645911 -40.56993215 102.56704902 -41.96736145 103.95759583 C-43.83114929 105.83284093 -45.56347063 107.72834801 -47.25390625 109.7578125 C-49.46297856 112.3587254 -51.64058313 114.91779185 -54.19140625 117.1953125 C-54.85140625 117.1953125 -55.51140625 117.1953125 -56.19140625 117.1953125 C-56.41828125 117.7728125 -56.64515625 118.3503125 -56.87890625 118.9453125 C-58.53902264 121.79122631 -60.58328582 123.19373171 -63.19140625 125.1953125 C-64.05765625 126.0615625 -64.92390625 126.9278125 -65.81640625 127.8203125 C-68.19140625 130.1953125 -68.19140625 130.1953125 -71.19140625 132.1953125 C-68.60743502 123.79740602 -64.695971 116.04680705 -60.56640625 108.3203125 C-59.67830681 106.64587502 -58.79028826 104.97139464 -57.90234375 103.296875 C-57.45213867 102.4502832 -57.00193359 101.60369141 -56.53808594 100.73144531 C-54.41093707 96.72549491 -52.30154517 92.71024125 -50.19140625 88.6953125 C-47.69830373 83.95334765 -45.20235259 79.2130141 -42.69140625 74.48046875 C-37.97107179 65.57073376 -33.37430734 56.61176397 -28.89306641 47.5793457 C-24.80887243 39.37120298 -20.52401799 31.27448222 -16.19140625 23.1953125 C-15.20140625 23.1953125 -14.21140625 23.1953125 -13.19140625 23.1953125 C-13.04445312 22.44507812 -12.8975 21.69484375 -12.74609375 20.921875 C-8.27214088 0.50625097 -8.27214088 0.50625097 0 0 Z " fill="#F78C0C" transform="translate(102.19140625,21.8046875)"/>
<path d="M0 0 C0.33 0 0.66 0 1 0 C1.15072752 5.79317962 0.62548022 11.06434913 -0.4375 16.75 C-1.57025522 23.10287978 -2.41275105 29.36144652 -2.7890625 35.8125 C-3 38 -3 38 -4 40 C-4.44199218 43.66222091 -4.81426644 47.32408227 -5.16210938 50.99609375 C-5.69017833 56.17374541 -6.6655115 60.96960388 -8 66 C-9.50553608 73.42927935 -10.30951004 80.81900767 -10.75390625 88.3828125 C-11 91 -11 91 -12 93 C-12.23137716 96.44127621 -12.39544678 99.87577869 -12.51757812 103.32226562 C-12.60890568 105.21946625 -12.79713434 107.11146711 -13 109 C-13.99 109.495 -13.99 109.495 -15 110 C-15.66 110.99 -16.32 111.98 -17 113 C-15.56652895 99.71406413 -13.60825115 86.53753353 -11.5234375 73.33984375 C-11.18970986 71.21184135 -10.85626984 69.08379382 -10.52310181 66.95570374 C-9.65466864 61.41360113 -8.7823867 55.8721113 -7.90924072 50.33074951 C-7.01524651 44.65251254 -6.12497795 38.97369155 -5.234375 33.29492188 C-3.49318363 22.19604709 -1.74791669 11.09781749 0 0 Z " fill="#F6D185" transform="translate(46,34)"/>
<path d="M0 0 C3.22265625 0.03515625 3.22265625 0.03515625 7 1 C9.02048989 3.21666839 10.18510821 5.73023392 11.4375 8.4375 C11.78748047 9.13166016 12.13746094 9.82582031 12.49804688 10.54101562 C15 15.59877997 15 15.59877997 15 18 C14.01 18 13.02 18 12 18 C10.79371992 15.66785852 9.8345262 13.50357861 9 11 C8.38125 11.20625 7.7625 11.4125 7.125 11.625 C6.42375 11.74875 5.7225 11.8725 5 12 C4.34 11.34 3.68 10.68 3 10 C2.34 10.66 1.68 11.32 1 12 C0.34 11.34 -0.32 10.68 -1 10 C-1.4125 10.825 -1.825 11.65 -2.25 12.5 C-3.11625 13.7375 -3.11625 13.7375 -4 15 C-5.32 15 -6.64 15 -8 15 C-6.51194289 9.19657726 -3.40902445 4.82409121 0 0 Z " fill="#FCA410" transform="translate(99,22)"/>
<path d="M0 0 C0.66 0.33 1.32 0.66 2 1 C0.60652624 4.15204981 -1.02485079 6.26171773 -3.4765625 8.671875 C-4.48203125 9.66767578 -4.48203125 9.66767578 -5.5078125 10.68359375 C-6.20648438 11.36550781 -6.90515625 12.04742187 -7.625 12.75 C-8.33140625 13.44738281 -9.0378125 14.14476563 -9.765625 14.86328125 C-11.50598703 16.58012488 -13.25084981 18.29211832 -15 20 C-16.74565111 16.78360346 -17.204437 14.67986596 -17 11 C-14.03 11.495 -14.03 11.495 -11 12 C-10.7525 11.4225 -10.505 10.845 -10.25 10.25 C-7.96895254 6.14411457 -5.15452911 4.00563474 -1 2 C-0.67 1.34 -0.34 0.68 0 0 Z " fill="#E99D12" transform="translate(121,60)"/>
<path d="M0 0 C0.33 0 0.66 0 1 0 C2.00410822 5.99451081 3.00078499 11.99019328 3.99072266 17.98706055 C4.32822111 20.02515646 4.66771536 22.06292295 5.00927734 24.1003418 C5.50107849 27.03609353 5.98558965 29.97297162 6.46875 32.91015625 C6.62186646 33.81459976 6.77498291 34.71904327 6.93273926 35.65089417 C7.72375283 40.50699336 8.1640962 45.08004438 8 50 C7.34 49.67 6.68 49.34 6 49 C5.57267122 46.40041656 5.24884551 43.8674861 5 41.25 C4.50789558 35.71572989 4.50789558 35.71572989 2.9453125 30.41015625 C1.7033688 27.24371301 1.80658202 24.5741901 1.875 21.1875 C1.89304688 20.02605469 1.91109375 18.86460938 1.9296875 17.66796875 C1.95289063 16.78753906 1.97609375 15.90710938 2 15 C1.34 15 0.68 15 0 15 C0 10.05 0 5.1 0 0 Z " fill="#F6DC87" transform="translate(161,65)"/>
<path d="M0 0 C2.31 0.33 4.62 0.66 7 1 C7.33 2.32 7.66 3.64 8 5 C5.36 4.34 2.72 3.68 0 3 C0 4.32 0 5.64 0 7 C-0.66 7 -1.32 7 -2 7 C-2.33 9.31 -2.66 11.62 -3 14 C-4.65 14.33 -6.3 14.66 -8 15 C-6.51194289 9.19657726 -3.40902445 4.82409121 0 0 Z " fill="#F3AA25" transform="translate(99,22)"/>
<path d="M0 0 C0.33 0 0.66 0 1 0 C1.74071756 4.33995748 2.47080045 8.68153113 3.19116211 13.02490234 C3.43760693 14.50162692 3.68693051 15.97787411 3.93920898 17.45361328 C4.30172949 19.57725411 4.65379744 21.70240724 5.00390625 23.828125 C5.21861572 25.1059082 5.4333252 26.38369141 5.65454102 27.70019531 C5.95639975 30.58353289 5.97226809 32.31665829 5 35 C3.03560291 28.97090705 1.68717681 23.29912073 1 17 C0.67 16.67 0.34 16.34 0 16 C-0.07319621 13.30345146 -0.09242537 10.63308542 -0.0625 7.9375 C-0.05798828 7.17888672 -0.05347656 6.42027344 -0.04882812 5.63867188 C-0.0370068 3.75908129 -0.01907078 1.87953101 0 0 Z " fill="#F9E090" transform="translate(169,115)"/>
<path d="M0 0 C0.33 0 0.66 0 1 0 C1 1.65 1 3.3 1 5 C1.66 5 2.32 5 3 5 C3 6.32 3 7.64 3 9 C3.721875 9.12375 4.44375 9.2475 5.1875 9.375 C7.95721894 9.9904931 10.3970354 10.88444374 13 12 C13 12.66 13 13.32 13 14 C15.31 14.66 17.62 15.32 20 16 C20 16.99 20 17.98 20 19 C14.82064939 17.53171057 10.65626588 15.18508737 6.125 12.375 C5.43664063 11.95476562 4.74828125 11.53453125 4.0390625 11.1015625 C2.35608342 10.07307528 0.67757468 9.037279 -1 8 C-0.67 5.36 -0.34 2.72 0 0 Z " fill="#F1CC74" transform="translate(28,151)"/>
<path d="M0 0 C0.33 0 0.66 0 1 0 C1.0270043 1.45823212 1.04639787 2.91660675 1.0625 4.375 C1.07410156 5.18710938 1.08570313 5.99921875 1.09765625 6.8359375 C1 9 1 9 0 11 C-0.23137716 14.44127621 -0.39544678 17.87577869 -0.51757812 21.32226562 C-0.60890568 23.21946625 -0.79713434 25.11146711 -1 27 C-1.66 27.33 -2.32 27.66 -3 28 C-3.66 28.99 -4.32 29.98 -5 31 C-1.70175439 1.70175439 -1.70175439 1.70175439 0 0 Z " fill="#F8D07F" transform="translate(34,116)"/>
<path d="M0 0 C2.375 -0.125 2.375 -0.125 5 0 C7.38708157 2.38708157 7.48523329 3.5570879 8.0703125 6.83203125 C8.24433594 7.79560547 8.41835937 8.75917969 8.59765625 9.75195312 C8.77167969 10.76193359 8.94570312 11.77191406 9.125 12.8125 C9.30675781 13.81087891 9.48851562 14.80925781 9.67578125 15.83789062 C10.4651405 20.29213213 11.10497082 24.46434357 11 29 C8.69343745 25.54015617 8.14898039 22.38037107 7.4375 18.375 C6.9699826 13.81747584 6.9699826 13.81747584 5 10 C4.95907063 7.66702567 4.95758277 5.33294775 5 3 C2.525 2.01 2.525 2.01 0 1 C0 0.67 0 0.34 0 0 Z " fill="#F9E294" transform="translate(150,35)"/>
<path d="M0 0 C2.66648371 3.33105349 4.6669681 6.87197848 6.6875 10.625 C7.31011719 11.77226562 7.93273437 12.91953125 8.57421875 14.1015625 C10 17 10 17 10 19 C9.01 19 8.02 19 7 19 C7 18.34 7 17.68 7 17 C6.34 17 5.68 17 5 17 C5 15.35 5 13.7 5 12 C4.34 12 3.68 12 3 12 C2.49166409 10.75336669 1.99368855 9.50250613 1.5 8.25 C1.2215625 7.55390625 0.943125 6.8578125 0.65625 6.140625 C0 4 0 4 0 0 Z " fill="#F4C164" transform="translate(68,8)"/>
<path d="M0 0 C2.95749791 3.46741134 5.07848152 6.86873527 7 11 C8.32 9.35 9.64 7.7 11 6 C10.125 11.75 10.125 11.75 9 14 C6.83125748 13.49396008 5.00032373 13.00016187 3 12 C1.4413321 8.05748707 0.59835078 4.18845544 0 0 Z " fill="#F5C770" transform="translate(80,31)"/>
<path d="M0 0 C2.31 0 4.62 0 7 0 C3.51253181 2.77770708 -0.26133864 4.98481471 -4.125 7.1875 C-4.75792969 7.55552734 -5.39085937 7.92355469 -6.04296875 8.30273438 C-10.75692834 11 -10.75692834 11 -13 11 C-13 10.34 -13 9.68 -13 9 C-12.01 9 -11.02 9 -10 9 C-10 8.34 -10 7.68 -10 7 C-9.01 7 -8.02 7 -7 7 C-7 6.34 -7 5.68 -7 5 C-6.01 5 -5.02 5 -4 5 C-4 4.34 -4 3.68 -4 3 C-2.68 3 -1.36 3 0 3 C0 2.01 0 1.02 0 0 Z " fill="#F0D07D" transform="translate(167,160)"/>
<path d="M0 0 C0.625 1.875 0.625 1.875 1 4 C0.34 4.66 -0.32 5.32 -1 6 C-2.32 6 -3.64 6 -5 6 C-5.33 6.99 -5.66 7.98 -6 9 C-8.27208411 10.51472274 -10.56019185 11.78009593 -13 13 C-11.95125002 10.37812506 -11.35068687 9.20628639 -8.875 7.75 C-8.25625 7.5025 -7.6375 7.255 -7 7 C-7 6.34 -7 5.68 -7 5 C-2.47619048 0 -2.47619048 0 0 0 Z " fill="#F7DD82" transform="translate(150,36)"/>
<path d="M0 0 C3.29730597 4.12163246 6.79339998 8.5724498 7.25 13.9375 C7.12625 14.9584375 7.12625 14.9584375 7 16 C4 14 4 14 3.41015625 12.125 C3.29542969 11.42375 3.18070312 10.7225 3.0625 10 C2.43472059 6.66751598 2.43472059 6.66751598 -0.125 4.5 C-0.74375 4.335 -1.3625 4.17 -2 4 C-1.34 4 -0.68 4 0 4 C0 2.68 0 1.36 0 0 Z " fill="#F8C262" transform="translate(117,46)"/>
<path d="M0 0 C3.14737182 0.69941596 6.02588876 1.76078698 9 3 C9 3.66 9 4.32 9 5 C10.32 5 11.64 5 13 5 C13.33 6.32 13.66 7.64 14 9 C9.02790438 7.23570801 4.56561939 4.6060834 0 2 C0 1.34 0 0.68 0 0 Z " fill="#F2C96D" transform="translate(64,178)"/>
<path d="M0 0 C0.33 0 0.66 0 1 0 C1.125 7.75 1.125 7.75 0 10 C-0.22622081 11.70363822 -0.40888473 13.41328701 -0.5625 15.125 C-0.64628906 16.03507812 -0.73007812 16.94515625 -0.81640625 17.8828125 C-0.87699219 18.58148437 -0.93757813 19.28015625 -1 20 C-1.66 20 -2.32 20 -3 20 C-2.22095672 6.3667426 -2.22095672 6.3667426 0 0 Z " fill="#F6CE7D" transform="translate(52,0)"/>
<path d="M0 0 C0.66 0 1.32 0 2 0 C2 0.66 2 1.32 2 2 C2.99 2.33 3.98 2.66 5 3 C4.01 5.64 3.02 8.28 2 11 C-1 8 -1 8 -1.07421875 5.95703125 C-0.71614583 3.97135417 -0.35807292 1.98567708 0 0 Z " fill="#F6A512" transform="translate(91,37)"/>
<path d="M0 0 C7 8.20689655 7 8.20689655 7 13 C6.01 13 5.02 13 4 13 C3.34 11.68 2.68 10.36 2 9 C1.67 9 1.34 9 1 9 C0.67 6.03 0.34 3.06 0 0 Z " fill="#F3C46B" transform="translate(107,27)"/>
<path d="M0 0 C2.64 0.33 5.28 0.66 8 1 C8.33 2.65 8.66 4.3 9 6 C5.9168649 4.80100302 2.93720508 3.52299523 0 2 C0 1.34 0 0.68 0 0 Z " fill="#F4CC6A" transform="translate(51,171)"/>
<path d="M0 0 C0.33 0 0.66 0 1 0 C1.33808686 2.06172613 1.67027361 4.1244203 2 6.1875 C2.185625 7.33605469 2.37125 8.48460938 2.5625 9.66796875 C2.93489477 12.50415393 3.08596021 15.14719564 3 18 C2.67 17.01 2.34 16.02 2 15 C1.34 15 0.68 15 0 15 C0 10.05 0 5.1 0 0 Z " fill="#F9E292" transform="translate(161,65)"/>
<path d="M0 0 C0.33 0 0.66 0 1 0 C1 3.96 1 7.92 1 12 C0.01 12.495 0.01 12.495 -1 13 C-1.66 13.99 -2.32 14.98 -3 16 C-2.88487847 14.27014758 -2.75744323 12.54111249 -2.625 10.8125 C-2.55539063 9.84957031 -2.48578125 8.88664063 -2.4140625 7.89453125 C-1.99784147 4.98491062 -1.20125904 2.67109226 0 0 Z " fill="#F2C366" transform="translate(32,131)"/>
<path d="M0 0 C2.33944736 0.28730055 4.6739143 0.61936779 7 1 C7.33 2.32 7.66 3.64 8 5 C5.03 4.67 2.06 4.34 -1 4 C-1 1 -1 1 0 0 Z " fill="#F1C66C" transform="translate(99,22)"/>
<path d="M0 0 C0.66 0.33 1.32 0.66 2 1 C-1.3 4.3 -4.6 7.6 -8 11 C-8.33 10.34 -8.66 9.68 -9 9 C-8.06725891 7.87105124 -7.12859878 6.74699124 -6.1875 5.625 C-5.66542969 4.99851562 -5.14335938 4.37203125 -4.60546875 3.7265625 C-3 2 -3 2 0 0 Z " fill="#EA840C" transform="translate(80,103)"/>
<path d="M0 0 C1.98 0 3.96 0 6 0 C3.63404067 2.61500768 1.13950774 4.38999603 -2 6 C-2.66 5.67 -3.32 5.34 -4 5 C-3.34 4.01 -2.68 3.02 -2 2 C-1.34 2 -0.68 2 0 2 C0 1.34 0 0.68 0 0 Z " fill="#F3CF7C" transform="translate(144,173)"/>
<path d="M0 0 C0.66 0.66 1.32 1.32 2 2 C-0.64 4.64 -3.28 7.28 -6 10 C-6.66 9.67 -7.32 9.34 -8 9 C-8 8.34 -8 7.68 -8 7 C-6.68 6.67 -5.36 6.34 -4 6 C-4 5.34 -4 4.68 -4 4 C-2.70766393 2.62689293 -1.37562854 1.28965176 0 0 Z " fill="#EA820B" transform="translate(97,85)"/>
<path d="M0 0 C0.33 0.99 0.66 1.98 1 3 C-0.65 4.65 -2.3 6.3 -4 8 C-4.99 7.67 -5.98 7.34 -7 7 C-4.78071806 4.09197539 -3.07030857 2.04687238 0 0 Z " fill="#FACD56" transform="translate(127,58)"/>
<path d="M0 0 C1.5 1.125 1.5 1.125 3 3 C3.1875 6.1875 3.1875 6.1875 3 9 C2.34 9 1.68 9 1 9 C0.71125 8.21625 0.4225 7.4325 0.125 6.625 C-0.84912254 3.90328368 -0.84912254 3.90328368 -3 2 C-2.01 2 -1.02 2 0 2 C0 1.34 0 0.68 0 0 Z " fill="#F39610" transform="translate(89,43)"/>
<path d="M0 0 C0.33 0 0.66 0 1 0 C1.33 3.63 1.66 7.26 2 11 C1.01 11.33 0.02 11.66 -1 12 C-1.02712066 10.56260487 -1.04645067 9.12506137 -1.0625 7.6875 C-1.07410156 6.88699219 -1.08570312 6.08648437 -1.09765625 5.26171875 C-1 3 -1 3 0 0 Z " fill="#E6A230" transform="translate(30,144)"/>
<path d="M0 0 C0 3.90838866 -1.50567876 5.11594107 -4 8 C-5.32 7.67 -6.64 7.34 -8 7 C-5.36 4.69 -2.72 2.38 0 0 Z " fill="#F2CF5F" transform="translate(141,45)"/>
<path d="M0 0 C0.33 0 0.66 0 1 0 C1.12375 0.94875 1.2475 1.8975 1.375 2.875 C1.71687177 6.08667191 1.71687177 6.08667191 4 8 C2.68 9.65 1.36 11.3 0 13 C0 8.71 0 4.42 0 0 Z " fill="#F49713" transform="translate(31,139)"/>
<path d="M0 0 C1.98 0.99 1.98 0.99 4 2 C4 2.99 4 3.98 4 5 C3.34 5 2.68 5 2 5 C1.67 6.32 1.34 7.64 1 9 C0.67 6.03 0.34 3.06 0 0 Z " fill="#ED990E" transform="translate(104,71)"/>
<path d="M0 0 C1.32 1.65 2.64 3.3 4 5 C1.525 6.485 1.525 6.485 -1 8 C-1.125 2.25 -1.125 2.25 0 0 Z " fill="#ED9F19" transform="translate(34,125)"/>
<path d="M0 0 C0.99 0.33 1.98 0.66 3 1 C3.33 3.31 3.66 5.62 4 8 C1 6 1 6 0.3125 2.875 C0.209375 1.92625 0.10625 0.9775 0 0 Z " fill="#EEB651" transform="translate(120,54)"/>
<path d="M0 0 C0.6875 1.6875 0.6875 1.6875 1 4 C-0.3125 6.75 -0.3125 6.75 -2 9 C-2.66 9 -3.32 9 -4 9 C-2.94124926 5.59687262 -1.99097846 2.98646769 0 0 Z " fill="#F4CD79" transform="translate(95,28)"/>
</svg>
