<?xml version="1.0" encoding="UTF-8"?>
<svg version="1.1" xmlns="http://www.w3.org/2000/svg" width="2048" height="2048">
<path d="M0 0 C675.84 0 1351.68 0 2048 0 C2048 675.84 2048 1351.68 2048 2048 C1372.16 2048 696.32 2048 0 2048 C0 1372.16 0 696.32 0 0 Z " fill="#3178C6" transform="translate(0,0)"/>
<path d="M0 0 C1.08954987 0.08950424 1.08954987 0.08950424 2.20111084 0.18081665 C15.77319222 1.31367037 29.32513331 2.67871173 42.6875 5.375 C44.48690165 5.72956027 46.28638318 6.08371541 48.0859375 6.4375 C48.9840918 6.61539063 49.88224609 6.79328125 50.80761719 6.9765625 C53.4229939 7.48502892 56.04173244 7.96633906 58.6640625 8.4375 C83.6045978 12.94150913 107.30655649 20.16745406 131.2355957 28.38012695 C133.32076444 29.09545632 135.40866973 29.80288991 137.5 30.5 C137.5 92.21 137.5 153.92 137.5 217.5 C133.80946747 216.02378699 131.00592776 214.62682372 127.74707031 212.48071289 C98.80725 193.45546065 66.52796421 181.33514879 33.5 171.5 C32.53884277 171.21286133 31.57768555 170.92572266 30.58740234 170.62988281 C-36.14053786 151.07962219 -121.14205057 145.30452126 -183.71044922 179.47216797 C-198.41819996 187.9195937 -210.26812524 199.78523238 -218.5 214.5 C-218.88285156 215.15871094 -219.26570313 215.81742188 -219.66015625 216.49609375 C-227.40897879 230.66789468 -227.8828655 250.1143159 -223.5 265.5 C-212.92739795 301.26513037 -179.80366181 323.10238388 -148.63232422 340.06005859 C-142.80826578 343.17413124 -136.94380895 346.20542735 -131.05664062 349.19824219 C-128.89112414 350.30085238 -126.73310007 351.41606335 -124.578125 352.5390625 C-104.32492344 362.99908333 -83.20885488 371.84777913 -62.1875 380.625 C-48.15730284 386.48440455 -34.26636715 392.54461324 -20.52685547 399.06445312 C-17.39890962 400.54794414 -14.26410649 402.01628611 -11.12890625 403.484375 C22.50193918 419.32288828 54.96207531 437.72374434 83.88525391 461.19384766 C85.39662271 462.41637912 86.92243598 463.62099259 88.44921875 464.82421875 C104.5849779 477.92265853 120.63718132 493.38665566 132.5 510.5 C133.21905518 511.52504639 133.21905518 511.52504639 133.95263672 512.57080078 C153.39252994 540.46068239 166.25980723 570.03277691 172.5 603.5 C172.70367188 604.56476562 172.90734375 605.62953125 173.1171875 606.7265625 C175.950336 622.5486072 176.84489105 638.20796926 176.75 654.25 C176.74723053 655.17032013 176.74446106 656.09064026 176.74160767 657.03884888 C176.6937457 670.61323858 176.34881768 684.03458924 174.5 697.5 C174.40348145 698.26538086 174.30696289 699.03076172 174.20751953 699.81933594 C168.77236481 742.39025225 153.65207081 782.04749833 126.5 815.5 C125.77562744 816.3957373 125.77562744 816.3957373 125.03662109 817.30957031 C114.45700754 830.27357089 102.8170555 842.33127012 89.5 852.5 C88.96890625 852.91282227 88.4378125 853.32564453 87.890625 853.75097656 C41.89468033 889.38200939 -13.13547806 906.08312794 -69.58337402 916.15692139 C-71.2284402 916.45139043 -72.87261373 916.75083861 -74.51660156 917.05126953 C-89.40067085 919.75560748 -104.47360554 921.04988705 -119.53503418 922.3314209 C-121.40296507 922.49167514 -123.27034946 922.65826211 -125.13769531 922.82519531 C-193.00346728 928.74536096 -264.92817887 925.00519769 -331.47558594 910.17089844 C-334.56627033 909.48529941 -337.66162431 908.82431433 -340.7578125 908.1640625 C-371.56471447 901.46650091 -402.2581804 891.68418746 -430.5 877.5 C-431.35529895 877.14759593 -432.2105979 876.79519186 -433.09181499 876.43210888 C-435.5 874.5 -435.5 874.5 -436.11523914 871.00738239 C-436.13630471 869.5205512 -436.12941318 868.03317713 -436.10127258 866.54646301 C-436.10768077 865.31755239 -436.10768077 865.31755239 -436.11421841 864.0638153 C-436.12247797 861.30867655 -436.0949155 858.55504812 -436.06762695 855.80004883 C-436.06621712 853.8291884 -436.06700719 851.85832533 -436.06983948 849.88746643 C-436.07127756 844.52808218 -436.04182418 839.16925432 -436.00696969 833.8099997 C-435.97577152 828.21261027 -435.97278062 822.61520893 -435.96684265 817.01774597 C-435.95128497 806.41418188 -435.91023038 795.81087469 -435.8600952 785.20742387 C-435.80426165 773.1374872 -435.7767303 761.06753843 -435.75161803 748.99750483 C-435.69931629 724.16486064 -435.61133655 699.33244469 -435.5 674.5 C-434.23019537 675.44991136 -432.96073025 676.40027657 -431.69140625 677.35083008 C-430.98443604 677.88001541 -430.27746582 678.40920074 -429.54907227 678.954422 C-426.83937887 680.99829452 -424.17199714 683.09467245 -421.5 685.1875 C-370.65644767 724.46279989 -309.96947653 750.63876023 -246.5 760.5 C-245.57848145 760.64421387 -244.65696289 760.78842773 -243.70751953 760.93701172 C-240.89037998 761.36933298 -238.07127231 761.78307706 -235.25 762.1875 C-234.43619873 762.30706055 -233.62239746 762.42662109 -232.78393555 762.54980469 C-217.92156849 764.56316157 -202.84986221 764.70978289 -187.875 764.6875 C-187.05028198 764.68656342 -186.22556396 764.68562683 -185.37585449 764.68466187 C-148.38478451 764.59419409 -111.21495966 759.97963278 -78.5 741.5 C-77.51128906 740.94828125 -76.52257813 740.3965625 -75.50390625 739.828125 C-57.8811542 729.32946421 -44.63441684 713.13105162 -38.87768555 693.36303711 C-33.79391981 672.80438784 -37.98600418 650.56725765 -48.5 632.5 C-77.46649124 587.15427462 -135.65366261 563.6943663 -183.17724609 543.55245972 C-186.3507502 542.20729464 -189.52135297 540.85547307 -192.69140625 539.50219727 C-201.52466725 535.73336415 -210.36450174 531.98011564 -219.20776367 528.2348175 C-236.86035767 520.75521489 -254.35311486 513.09664539 -271.5 504.5 C-272.47324219 504.01466797 -273.44648437 503.52933594 -274.44921875 503.02929688 C-309.90800938 485.25306036 -341.73620764 462.73518513 -370.5 435.5 C-371.62728516 434.43652344 -371.62728516 434.43652344 -372.77734375 433.3515625 C-377.29736958 428.96579486 -381.28894414 424.24749031 -385.22265625 419.33203125 C-386.68298962 417.51600776 -388.16814094 415.7195062 -389.68359375 413.94921875 C-412.47205015 387.17989118 -426.875406 353.55264951 -434.5 319.5 C-434.75088379 318.39229248 -434.75088379 318.39229248 -435.00683594 317.26220703 C-448.47058709 255.86460635 -438.94219961 184.66767405 -405.4375 131.375 C-400.52230422 123.75927678 -395.26274313 116.49683794 -389.5 109.5 C-389.05221191 108.95069824 -388.60442383 108.40139648 -388.14306641 107.83544922 C-377.2136321 94.49751254 -365.24384834 81.95991998 -351.5 71.5 C-350.8620752 71.00209961 -350.22415039 70.50419922 -349.56689453 69.99121094 C-321.97710974 48.5050243 -290.49728228 32.84188697 -257.5 21.5 C-256.68160645 21.21576172 -255.86321289 20.93152344 -255.02001953 20.63867188 C-242.35778263 16.2895485 -229.43237603 13.14936362 -216.39013672 10.1640625 C-213.85176203 9.58082385 -211.31799855 8.98169514 -208.78515625 8.375 C-140.89075329 -7.64829325 -69.05766913 -5.67339343 0 0 Z " fill="#FEFEFE" transform="translate(1703.5,955.5)"/>
<path d="M0 0 C236.28 0 472.56 0 716 0 C716 54.12 716 108.24 716 164 C631.19 164 546.38 164 459 164 C459 405.56 459 647.12 459 896 C392.01 896 325.02 896 256 896 C256 654.44 256 412.88 256 164 C171.52 164 87.04 164 0 164 C0 109.88 0 55.76 0 0 Z " fill="#FFFFFF" transform="translate(472,972)"/>
<path d="M0 0 C0.33 0 0.66 0 1 0 C1.08451416 0.63164063 1.16902832 1.26328125 1.25610352 1.9140625 C7.43645799 46.85620794 24.9388985 86.86248338 56.65087891 119.60400391 C57.86749337 120.86288945 59.06578798 122.13941755 60.26171875 123.41796875 C70.70073161 134.32008015 83.25385339 143.01723292 96 151 C96.59941406 151.37866211 97.19882813 151.75732422 97.81640625 152.14746094 C122.69287737 167.6348104 151.15513631 175.39834123 180 179 C180 179.33 180 179.66 180 180 C120.6 180 61.2 180 0 180 C0 120.6 0 61.2 0 0 Z " fill="#000000" transform="translate(0,1868)"/>
<path d="M0 0 C0.33 0 0.66 0 1 0 C1 59.4 1 118.8 1 180 C-58.4 180 -117.8 180 -179 180 C-179 179.67 -179 179.34 -179 179 C-178.36835937 178.91548584 -177.73671875 178.83097168 -177.0859375 178.74389648 C-124.27225187 171.48106346 -74.95534702 147.18901831 -41.95458984 104.36279297 C-18.44869089 73.13315942 -4.84492681 38.8019138 0 0 Z " fill="#000000" transform="translate(2047,1868)"/>
<path d="M0 0 C59.4 0 118.8 0 180 0 C180 0.33 180 0.66 180 1 C179.36835938 1.08451416 178.73671875 1.16902832 178.0859375 1.25610352 C132.85290331 7.47646043 92.97095405 25.18349112 60 57 C59.10023437 57.83660156 58.20046875 58.67320313 57.2734375 59.53515625 C25.04191248 90.32694456 5.15012055 135.99441143 1 180 C0.67 180 0.34 180 0 180 C0 120.6 0 61.2 0 0 Z " fill="#000000" transform="translate(0,0)"/>
<path d="M0 0 C59.4 0 118.8 0 180 0 C180 59.4 180 118.8 180 180 C179.67 180 179.34 180 179 180 C178.91548584 179.36835938 178.83097168 178.73671875 178.74389648 178.0859375 C171.42173135 124.84080217 146.78683207 75.45744454 103.625 42.25 C72.86197679 19.14129996 38.12921713 5.76093182 0 1 C0 0.67 0 0.34 0 0 Z " fill="#000000" transform="translate(1868,0)"/>
</svg>
